<svg width="16" height="16" viewBox="0 0 16 16" fill="none" xmlns="http://www.w3.org/2000/svg">
<path d="M12.6667 6H9.52067L9.98 4.162L10 3.33333C10 2.97971 9.85952 2.64057 9.60948 2.39052C9.35943 2.14048 9.02029 2 8.66667 2H6.186L5.386 4.41067L4.25467 6.66667H3.33333V6H2V14H3.33333V13.3333H4.50933L5.84267 14H11.69L13.3007 11.584L13.9907 7.44333L14 7.33333C14 6.97971 13.8595 6.64057 13.6095 6.39052C13.3594 6.14048 13.0203 6 12.6667 6ZM12.0327 11.0827L10.9767 12.6667H6.15733L4.824 12H3.33333V8H5.07867L6.6 4.96467L7.14733 3.33333H8.66667V3.918L7.81267 7.33333H12.6573L12.0327 11.0827Z" fill="#22292E"/>
</svg>
