<svg width="24" height="24" viewBox="0 0 24 24" fill="none" xmlns="http://www.w3.org/2000/svg">
<path d="M21.707 20.2932L17.168 15.7542C18.5148 14.0467 19.1584 11.889 18.9669 9.72265C18.7755 7.55628 17.7635 5.54494 16.138 4.10009C14.5125 2.65524 12.3964 1.88608 10.2225 1.94997C8.04868 2.01386 5.98137 2.90597 4.44355 4.44379C2.90573 5.98162 2.01362 8.04892 1.94973 10.2228C1.88584 12.3967 2.65499 14.5128 4.09984 16.1383C5.5447 17.7638 7.55604 18.7757 9.72241 18.9672C11.8888 19.1586 14.0464 18.5151 15.754 17.1682L20.293 21.7072L21.707 20.2932ZM10.5 17.0002C9.21438 17.0002 7.95767 16.619 6.88875 15.9048C5.81983 15.1905 4.98671 14.1754 4.49474 12.9876C4.00277 11.7999 3.87405 10.493 4.12485 9.23211C4.37565 7.97123 4.99472 6.81305 5.90376 5.904C6.8128 4.99496 7.97099 4.3759 9.23187 4.12509C10.4927 3.87429 11.7997 4.00301 12.9874 4.49498C14.1751 4.98695 15.1903 5.82007 15.9045 6.88899C16.6187 7.95791 17 9.21462 17 10.5002C16.9978 12.2235 16.3123 13.8755 15.0938 15.0941C13.8753 16.3126 12.2232 16.9981 10.5 17.0002Z" fill="#C5C5C7"/>
</svg>
