<svg width="16" height="16" viewBox="0 0 16 16" fill="none" xmlns="http://www.w3.org/2000/svg">
<path d="M7.99998 1.3335C6.76274 1.33491 5.57657 1.82703 4.70171 2.70189C3.82684 3.57675 3.33472 4.76292 3.33331 6.00016C3.33331 9.56883 7.35731 13.6335 7.52865 13.8048L7.99998 14.2762L8.47131 13.8048C8.64265 13.6335 12.6666 9.56883 12.6666 6.00016C12.6652 4.76292 12.1731 3.57675 11.2983 2.70189C10.4234 1.82703 9.23722 1.33491 7.99998 1.3335ZM7.99998 12.3555C6.98065 11.2168 4.66665 8.36883 4.66665 6.00016C4.66665 5.11611 5.01784 4.26826 5.64296 3.64314C6.26808 3.01802 7.11592 2.66683 7.99998 2.66683C8.88403 2.66683 9.73188 3.01802 10.357 3.64314C10.9821 4.26826 11.3333 5.11611 11.3333 6.00016C11.3333 8.36416 9.01798 11.2155 7.99998 12.3555Z" fill="#8A8A8E"/>
<path d="M8 4C7.60444 4 7.21776 4.1173 6.88886 4.33706C6.55996 4.55682 6.30362 4.86918 6.15224 5.23463C6.00087 5.60008 5.96126 6.00222 6.03843 6.39018C6.1156 6.77814 6.30608 7.13451 6.58579 7.41421C6.86549 7.69392 7.22186 7.8844 7.60982 7.96157C7.99778 8.03874 8.39992 7.99913 8.76537 7.84776C9.13082 7.69638 9.44318 7.44004 9.66294 7.11114C9.8827 6.78224 10 6.39556 10 6C10 5.46957 9.78929 4.96086 9.41422 4.58579C9.03914 4.21071 8.53043 4 8 4ZM8 6.66667C7.86815 6.66667 7.73925 6.62757 7.62962 6.55431C7.51999 6.48106 7.43454 6.37694 7.38408 6.25512C7.33362 6.1333 7.32042 5.99926 7.34614 5.86994C7.37187 5.74062 7.43536 5.62183 7.5286 5.5286C7.62183 5.43536 7.74062 5.37187 7.86994 5.34614C7.99926 5.32042 8.13331 5.33362 8.25512 5.38408C8.37694 5.43454 8.48106 5.51999 8.55431 5.62962C8.62757 5.73925 8.66667 5.86815 8.66667 6C8.66667 6.17681 8.59643 6.34638 8.47141 6.4714C8.34638 6.59643 8.17681 6.66667 8 6.66667Z" fill="#8A8A8E"/>
</svg>
