<svg width="24" height="24" viewBox="0 0 24 24" fill="none" xmlns="http://www.w3.org/2000/svg">
<path d="M20.485 4.59988C19.3591 3.47597 17.8333 2.84473 16.2425 2.84473C14.6517 2.84473 13.1259 3.47597 12 4.59988C10.8717 3.4898 9.35044 2.87053 7.76762 2.87698C6.1848 2.88342 4.66865 3.51505 3.54941 4.63429C2.43018 5.75352 1.79855 7.26967 1.7921 8.8525C1.78566 10.4353 2.40492 11.9566 3.515 13.0849L12 21.5709L20.485 13.0859C21.6092 11.96 22.2407 10.4339 22.2407 8.84288C22.2407 7.25181 21.6092 5.72577 20.485 4.59988ZM19.071 11.6709L12 18.7429L4.929 11.6719C4.52286 11.2748 4.20595 10.7958 3.99936 10.2666C3.79277 9.73755 3.70123 9.17051 3.73083 8.60328C3.76044 8.03605 3.91051 7.48162 4.17107 6.9769C4.43162 6.47218 4.79668 6.02874 5.24195 5.67609C5.68722 5.32344 6.20249 5.06966 6.75348 4.93165C7.30446 4.79364 7.87852 4.77455 8.43745 4.87566C8.99638 4.97677 9.52737 5.19577 9.99508 5.51807C10.4628 5.84036 10.8565 6.25858 11.15 6.74488L12 8.11688L12.85 6.74488C13.0091 6.48054 13.1984 6.23557 13.414 6.01488C14.1765 5.28828 15.1893 4.88297 16.2425 4.88297C17.2957 4.88297 18.3085 5.28828 19.071 6.01488C19.4425 6.38631 19.7371 6.82728 19.9381 7.3126C20.1392 7.79791 20.2426 8.31807 20.2426 8.84338C20.2426 9.36868 20.1392 9.88884 19.9381 10.3742C19.7371 10.8595 19.4425 11.3004 19.071 11.6719V11.6709Z" fill="black"/>
</svg>
