<svg width="24" height="24" viewBox="0 0 24 24" fill="none" xmlns="http://www.w3.org/2000/svg">
<path d="M12 9C11.4067 9 10.8266 9.17595 10.3333 9.50559C9.83994 9.83524 9.45543 10.3038 9.22836 10.8519C9.0013 11.4001 8.94189 12.0033 9.05765 12.5853C9.1734 13.1672 9.45912 13.7018 9.87868 14.1213C10.2982 14.5409 10.8328 14.8266 11.4147 14.9424C11.9967 15.0581 12.5999 14.9987 13.1481 14.7716C13.6962 14.5446 14.1648 14.1601 14.4944 13.6667C14.8241 13.1734 15 12.5933 15 12C15 11.2044 14.6839 10.4413 14.1213 9.87868C13.5587 9.31607 12.7957 9 12 9ZM12 13C11.8022 13 11.6089 12.9414 11.4444 12.8315C11.28 12.7216 11.1518 12.5654 11.0761 12.3827C11.0004 12.2 10.9806 11.9989 11.0192 11.8049C11.0578 11.6109 11.153 11.4327 11.2929 11.2929C11.4327 11.153 11.6109 11.0578 11.8049 11.0192C11.9989 10.9806 12.2 11.0004 12.3827 11.0761C12.5654 11.1518 12.7216 11.28 12.8315 11.4444C12.9414 11.6089 13 11.8022 13 12C13 12.2652 12.8946 12.5196 12.7071 12.7071C12.5196 12.8946 12.2652 13 12 13Z" fill="black"/>
<path d="M23 15V9H19.416L19.365 8.877L21.9 6.343L17.657 2.1L15.123 4.635L15 4.584V1H9V4.584L8.877 4.635L6.343 2.1L2.1 6.343L4.635 8.877L4.584 9H1V15H4.584L4.635 15.123L2.1 17.657L6.343 21.9L8.877 19.366L9 19.416V23H15V19.416L15.123 19.365L17.657 21.9L21.9 17.657L19.366 15.123L19.416 15H23ZM19.071 17.657L17.657 19.071L15.51 16.923L14.854 17.279C14.4915 17.4741 14.1098 17.6312 13.715 17.748L13 17.96V21H11V17.96L10.285 17.748C9.89022 17.6312 9.50853 17.4741 9.146 17.279L8.49 16.923L6.343 19.071L4.929 17.657L7.077 15.51L6.721 14.854C6.52592 14.4915 6.36876 14.1098 6.252 13.715L6.04 13H3V11H6.04L6.252 10.285C6.36876 9.89022 6.52592 9.50853 6.721 9.146L7.077 8.49L4.929 6.343L6.343 4.929L8.49 7.077L9.146 6.721C9.50853 6.52592 9.89022 6.36876 10.285 6.252L11 6.04V3H13V6.04L13.715 6.252C14.1098 6.36876 14.4915 6.52592 14.854 6.721L15.51 7.077L17.657 4.929L19.071 6.343L16.923 8.49L17.279 9.146C17.4741 9.50853 17.6312 9.89022 17.748 10.285L17.96 11H21V13H17.96L17.748 13.715C17.6312 14.1098 17.4741 14.4915 17.279 14.854L16.923 15.51L19.071 17.657Z" fill="black"/>
</svg>
