<svg width="48" height="48" viewBox="0 0 48 48" fill="none" xmlns="http://www.w3.org/2000/svg">
<rect width="48" height="48" rx="16" fill="#FBFBFB"/>
<path d="M17 14V30H17.051C16.9769 30.3632 16.9844 30.7383 17.0731 31.0982C17.1618 31.4581 17.3294 31.7938 17.5638 32.0809C17.7983 32.3681 18.0936 32.5995 18.4284 32.7585C18.7633 32.9174 19.1293 32.9999 19.5 33H30V30H31V14H17ZM28 31H19.5C19.3674 31 19.2402 30.9473 19.1464 30.8536C19.0527 30.7598 19 30.6326 19 30.5C19 30.3674 19.0527 30.2402 19.1464 30.1464C19.2402 30.0527 19.3674 30 19.5 30H28V31ZM19.5 28C19.332 28.0002 19.1645 28.0172 19 28.051V16H29V28H19.5Z" fill="#C5C5C7"/>
<path d="M27 18H21V20H27V18Z" fill="#C5C5C7"/>
</svg>
