<svg width="16" height="16" viewBox="0 0 16 16" fill="none" xmlns="http://www.w3.org/2000/svg">
<path d="M7.99992 1.3335C6.68138 1.3335 5.39245 1.72449 4.29612 2.45703C3.19979 3.18957 2.34531 4.23077 1.84072 5.44894C1.33614 6.66711 1.20412 8.00756 1.46135 9.30077C1.71859 10.594 2.35353 11.7819 3.28588 12.7142C4.21823 13.6466 5.40611 14.2815 6.69932 14.5387C7.99253 14.796 9.33297 14.6639 10.5511 14.1594C11.7693 13.6548 12.8105 12.8003 13.5431 11.704C14.2756 10.6076 14.6666 9.31871 14.6666 8.00016C14.6646 6.23265 13.9616 4.53808 12.7118 3.28826C11.462 2.03844 9.76744 1.33544 7.99992 1.3335ZM7.99992 13.3335C6.94509 13.3335 5.91394 13.0207 5.03688 12.4347C4.15982 11.8486 3.47623 11.0157 3.07256 10.0411C2.6689 9.0666 2.56328 7.99425 2.76907 6.95968C2.97485 5.92512 3.48281 4.97481 4.22869 4.22893C4.97457 3.48305 5.92487 2.9751 6.95944 2.76931C7.99401 2.56352 9.06636 2.66914 10.0409 3.07281C11.0154 3.47647 11.8484 4.16006 12.4344 5.03712C13.0205 5.91418 13.3333 6.94533 13.3333 8.00016C13.3317 9.41416 12.7693 10.7698 11.7694 11.7696C10.7696 12.7695 9.41392 13.3319 7.99992 13.3335Z" fill="#8A8A8E"/>
<path d="M10.8618 5.52881L7.33315 9.05748L5.80448 7.52881L4.86182 8.47147L7.33315 10.9428L11.8045 6.47147L10.8618 5.52881Z" fill="#8A8A8E"/>
</svg>
