<svg width="24" height="24" viewBox="0 0 24 24" fill="none" xmlns="http://www.w3.org/2000/svg">
<path d="M21 7V6H19V7H17.721L16.721 4H7.279L6.279 7H2V21H22V7H21ZM20 19H4V9H7.721L8.721 6H15.279L16.279 9H20V19Z" fill="black"/>
<path d="M12 9C11.11 9 10.24 9.26392 9.49994 9.75839C8.75991 10.2529 8.18314 10.9557 7.84254 11.7779C7.50195 12.6002 7.41283 13.505 7.58647 14.3779C7.7601 15.2508 8.18869 16.0526 8.81802 16.682C9.44736 17.3113 10.2492 17.7399 11.1221 17.9135C11.995 18.0872 12.8998 17.9981 13.7221 17.6575C14.5443 17.3169 15.2471 16.7401 15.7416 16.0001C16.2361 15.26 16.5 14.39 16.5 13.5C16.4987 12.3069 16.0241 11.1631 15.1805 10.3195C14.3369 9.47585 13.1931 9.00132 12 9ZM12 16C11.5055 16 11.0222 15.8534 10.6111 15.5787C10.2 15.304 9.87952 14.9135 9.6903 14.4567C9.50108 13.9999 9.45158 13.4972 9.54804 13.0123C9.6445 12.5273 9.8826 12.0819 10.2322 11.7322C10.5819 11.3826 11.0273 11.1445 11.5123 11.048C11.9972 10.9516 12.4999 11.0011 12.9567 11.1903C13.4135 11.3795 13.804 11.7 14.0787 12.1111C14.3534 12.5222 14.5 13.0055 14.5 13.5C14.5 14.163 14.2366 14.7989 13.7678 15.2678C13.2989 15.7366 12.663 16 12 16Z" fill="black"/>
</svg>
